<svg viewBox="0 0 30 30" fill="none" xmlns="http://www.w3.org/2000/svg">
<path d="M18.6759 13.2567C18.4031 12.4448 17.9869 12.1542 17.5055 12.1542C16.9186 12.1542 16.2342 12.585 15.5906 13.0313C15.2076 13.2975 13.725 14.9348 12.9164 14.9348C12.8237 14.9373 12.7327 14.9104 12.6562 14.858C11.8669 14.2992 12.8559 11.8645 12.8559 10.6969C12.8559 9.56672 12.6506 9.135 12.3361 9.135C11.4665 9.135 9.76311 12.4458 9.28826 13.4011C9.1542 13.6706 8.96717 13.777 8.75014 13.777C7.99123 13.777 6.86248 12.4716 6.34404 12.2714C6.2667 12.24 6.18422 12.2232 6.10076 12.2217C5.23451 12.2217 5.25326 14.3766 5.26639 14.9484C5.73983 14.8191 6.18373 14.7394 6.57186 14.7394C7.55014 14.7394 8.17217 15.2461 8.00998 16.7334C7.97342 17.0677 7.76201 18.1327 8.10795 18.3675C8.16348 18.4036 8.22878 18.4218 8.29498 18.4195C8.69389 18.4195 9.32576 17.9278 9.56061 17.7778C9.87654 17.5753 10.208 17.4272 10.4883 17.4272C10.8258 17.4272 11.0892 17.6414 11.1647 18.2344C11.2097 18.5855 11.0376 19.9214 11.3817 20.1347C11.4322 20.1651 11.4901 20.1808 11.549 20.1802C12.1842 20.1802 13.2684 18.593 13.7592 18.4111C13.9896 18.3258 14.2335 18.2824 14.4792 18.2831C15.1322 18.2831 15.7533 18.5714 16.3884 18.8152C16.4953 18.8564 16.5825 18.8742 16.6533 18.8742C17.0372 18.8742 16.9256 18.3413 16.597 18.0005C16.1184 17.5017 15.359 17.7206 14.8265 17.3634C14.1501 16.9097 15.0919 15.998 15.4575 15.7275C15.8939 15.4041 16.8614 14.8842 17.6334 14.8842C17.9911 14.8842 18.3065 14.9958 18.5072 15.2892C18.8864 15.8438 18.2555 16.5441 18.4148 17.1666C18.4819 17.4248 18.644 17.5139 18.8362 17.5139C19.2455 17.5139 19.7878 17.1098 19.8253 17.0714C20.0747 16.8123 20.3431 16.5721 20.6283 16.3528C19.2033 16.0373 19.0823 14.4689 18.6759 13.2567" />
<path d="M6.99188 12.0886C6.99188 12.0886 8.22422 13.1756 8.75063 13.1756C8.85141 13.1756 8.92688 13.1358 8.96204 13.0392C9.71954 10.965 11.3213 8.59453 12.367 8.59453C12.8231 8.59453 13.1733 9.04594 13.3008 10.1709C13.4658 11.6273 12.4584 13.8347 12.9427 14.3377C12.9532 14.3483 12.9659 14.3567 12.9798 14.3622C12.9938 14.3676 13.0088 14.3702 13.0238 14.3695C13.568 14.3695 15.7181 11.6161 17.5584 11.6161C17.7001 11.6157 17.8412 11.6332 17.9784 11.6681C19.6364 12.0933 18.9178 14.9203 20.2636 15.728C20.4864 15.8637 20.7419 15.9364 21.0028 15.9384C21.4988 15.9384 21.9516 15.6558 22.0598 15.0713C22.3331 13.5956 17.6466 10.7353 20.182 10.7353C20.5458 10.7353 21.0581 10.7939 21.7547 10.9242C22.1695 8.08172 22.0247 7.29375 21.6534 7.29375C21.2302 7.29375 20.512 8.31703 19.9894 8.49328C19.9743 8.49835 19.9584 8.50104 19.9425 8.50125C19.6439 8.50125 19.6542 7.42594 19.1433 7.42594C18.8133 7.42594 18.2663 7.87453 17.2791 9.34922C16.77 10.11 16.3889 10.4109 16.088 10.4109C14.9433 10.4109 14.9756 6.03234 13.6022 6.03234C13.3247 6.03234 12.99 6.21094 12.5766 6.63984C11.9419 7.29891 11.3494 7.53234 10.7948 7.53234C9.44438 7.53234 8.32547 6.14531 7.40813 6.14531C7.04625 6.14531 6.71485 6.36141 6.41391 6.96516C5.79094 8.21719 7.90032 8.1525 6.99188 12.0886V12.0886ZM8.60579 12.652C8.35922 12.5414 7.92141 12.2452 7.51079 11.9077C7.58672 11.5359 7.6336 11.2022 7.66079 10.8947C7.77657 10.7006 7.91907 10.5094 8.09297 10.3322C8.80125 9.60984 9.70875 9.38156 10.1536 9.79875C9.51938 10.673 8.9611 11.7431 8.60579 12.652V12.652ZM19.0172 10.7892C18.7856 11.3372 19.2361 11.9156 19.9256 12.6717C19.8775 12.7243 19.8216 12.769 19.7597 12.8044C19.694 12.8408 19.6227 12.866 19.5488 12.8789C19.3294 12.1383 18.9614 11.4272 18.0928 11.2045C17.9652 11.1734 17.8349 11.1541 17.7038 11.1469C17.4684 10.3819 17.5777 9.66328 18.0234 9.41484C18.5147 9.13969 19.2309 9.5325 19.7198 10.2947C19.4475 10.3467 19.1513 10.4723 19.0172 10.7892" />
<path d="M22.5033 15.0816C22.4006 15.7523 23.3756 15.8723 22.9097 16.9711C22.6706 17.5331 20.6461 18.8287 20.7952 19.1123C21.0159 19.5272 21.2813 19.6884 21.5499 19.6884C22.0814 19.6884 22.6228 19.0575 22.8408 18.5109C23.1263 17.7961 23.1999 15.9197 23.8955 15.5719C24.0131 15.5123 24.1294 15.4861 24.2442 15.4861C24.9309 15.4861 25.5727 16.4147 26.1914 16.5403C26.3424 15.8681 26.2345 15.1706 26.3883 14.4947C23.7764 14.4619 27.8395 10.8923 25.5178 9.43594C25.3927 9.35766 25.2877 9.3225 25.1958 9.32297C24.465 9.32297 24.6352 11.5608 22.7888 11.5608C22.6416 11.5608 22.4808 11.5462 22.3059 11.5153C21.6305 11.3962 21.1641 11.3409 20.8589 11.3409C19.0805 11.3419 22.7916 13.2127 22.5033 15.0816" />
<path d="M27.1298 11.5748C27.1964 11.1722 27.1999 10.7617 27.1402 10.358C26.9723 9.23344 26.0934 8.31844 25.1813 8.31797C24.8695 8.31797 24.1233 8.44781 23.7703 9.55547C23.5329 9.45629 23.2933 9.36251 23.0517 9.27422C23.2603 7.87031 23.182 6.90797 22.8075 6.41625C22.7172 6.29322 22.599 6.19327 22.4628 6.12452C22.3265 6.05577 22.1759 6.02017 22.0233 6.02062C21.533 6.02062 20.9822 6.34875 20.2978 7.05047L20.273 6.98391C20.1277 6.59109 19.8848 5.93391 19.2333 5.93391C18.788 5.93391 18.1983 6.20859 16.9589 8.01516C16.5995 7.98872 16.2396 7.96949 15.8794 7.9575L15.8128 7.71562C15.4261 6.29578 14.9873 4.68703 13.7513 4.68656H13.7508C13.2469 4.68656 12.7167 4.98328 12.1294 5.59312C11.692 6.04781 11.2594 6.26859 10.8061 6.26859C10.2534 6.26859 9.68766 5.95172 9.14016 5.64562C8.58656 5.33625 8.01469 5.01609 7.42313 5.01609C6.72188 5.01609 6.15188 5.44594 5.68031 6.33047C5.14172 7.34109 5.44125 8.00859 5.73094 8.65453C5.8575 8.93625 5.99016 9.23484 6.08437 9.60141C2.94516 10.9495 0.9375 12.9909 0.9375 15.2798C0.9375 21.6234 7.23375 29.0625 15 29.0625C22.7667 29.0625 29.0625 21.6234 29.0625 15.2798C29.0625 13.927 28.3509 12.6633 27.1298 11.5748ZM15 28.1067C9.08859 28.1067 4.11797 23.468 2.46469 18.6103C4.78922 20.9958 9.52781 22.6303 15 22.6303C20.4722 22.6303 25.2098 20.9958 27.5344 18.6108C25.8811 23.4675 20.9109 28.1067 15 28.1067ZM20.2195 19.9102C20.1066 20.2655 19.7555 20.8055 19.32 21.1856C18.6478 21.772 17.8284 21.8981 17.438 21.4884C17.1098 21.1425 17.1637 20.4998 17.5406 19.8984C18.3122 18.6666 19.4184 18.3966 19.8984 18.6403C19.8891 18.6741 19.8759 18.7064 19.8694 18.7425C19.8028 19.117 19.9233 19.5098 20.2195 19.9102V19.9102ZM27.4233 13.8877C26.9644 13.8877 26.7436 15.1589 26.7108 15.9581C26.6817 16.6627 26.4783 16.8975 26.1872 16.8975C25.7681 16.8975 25.1672 16.4119 24.6427 16.1372C24.4748 16.0491 24.3459 16.0102 24.2447 16.0102C23.9442 16.0102 23.8894 16.3612 23.7862 16.8581C23.6123 17.6967 23.4052 18.5667 22.9505 19.29C22.6167 19.8211 22.1006 20.1905 21.5836 20.1905C21.2437 20.1905 20.9034 20.0311 20.6138 19.6537C19.4747 18.1734 21.9769 17.8706 22.4756 16.8558C22.7644 16.2689 22.672 16.0645 22.4077 16.0645C21.8873 16.0645 20.7009 16.8586 20.4562 17.0831C20.0241 17.4783 19.5277 18.0605 18.9202 18.0605C18.8175 18.0605 18.7111 18.0436 18.6014 18.0066C17.9569 17.7891 17.8664 16.9781 18.0028 16.3758C18.1162 15.8723 18.3773 15.42 17.7042 15.3942C17.6805 15.3933 17.6567 15.3928 17.633 15.3928C17.1994 15.3928 16.7564 15.5353 16.3631 15.7134C15.8859 15.93 15.2259 16.3172 15.053 16.8858C14.9991 17.0606 16.1564 17.243 16.3364 17.3123C17.2383 17.6648 17.6794 19.3622 16.7358 19.3622C16.6139 19.3622 16.4691 19.3336 16.2989 19.2717C15.7073 19.0509 15.1125 18.7387 14.4933 18.7387C14.2898 18.7387 14.0841 18.7725 13.8755 18.8545C13.4433 19.0242 13.207 19.5084 12.8667 19.8117C12.3633 20.2636 11.918 20.5064 11.5683 20.5064C11.0864 20.5064 10.7864 20.0452 10.7672 19.0322C10.7503 18.2091 10.5923 17.9423 10.3369 17.9423C9.88125 17.9423 9.11625 18.7931 8.29453 18.8559C8.27062 18.8573 8.24766 18.8583 8.22563 18.8583C7.12922 18.8583 7.55578 16.7737 7.64109 16.1311C7.73438 15.4303 7.31156 15.1814 6.66047 15.1814C5.92875 15.1814 4.91109 15.4955 4.01484 15.8362C4.05797 15.8747 4.10297 15.9084 4.14422 15.9506C4.96453 16.7691 5.23406 17.8486 4.74797 18.36C4.26094 18.8705 3.20203 18.6206 2.38266 17.8012C1.56328 16.9819 1.29281 15.9023 1.77984 15.3914C2.19562 14.9522 2.84203 15.0998 3.39188 15.3928C4.11047 15.1514 4.83938 14.9409 4.8225 14.6016C4.69453 12.0347 5.4225 11.5556 5.98453 11.5561C6.19877 11.5614 6.40832 11.6199 6.59437 11.7262C7.10156 8.45953 5.19891 8.23781 6.09281 6.56016C6.51609 5.76656 6.95813 5.49562 7.42406 5.49562C8.42578 5.49562 9.53719 6.74766 10.807 6.74766C11.3316 6.74766 11.8833 6.53344 12.465 5.92922C12.9867 5.38734 13.4067 5.16562 13.7522 5.16562C15.2977 5.16609 15.3389 9.60469 16.2225 9.60469C16.3922 9.60469 16.5933 9.44109 16.8413 9.05109C18.1373 7.01578 18.8269 6.4125 19.2338 6.4125C19.8272 6.4125 19.8192 7.69594 20.2116 7.69594C20.2922 7.69594 20.3906 7.64109 20.5144 7.50937C21.1655 6.81609 21.6666 6.49875 22.0238 6.49875C22.8661 6.49875 22.9078 8.26172 22.2216 11.0081C22.2216 11.0081 22.3748 11.047 22.5994 11.047C23.078 11.047 23.8781 10.8712 24.1913 9.7725C24.3886 9.08062 24.7725 8.79656 25.1822 8.79656C25.8291 8.79656 26.5392 9.50437 26.6775 10.4302C26.9292 12.1209 25.8141 13.3186 25.9013 13.8286C25.9163 13.9191 25.9608 13.9547 26.0273 13.9547C26.2772 13.9547 26.8383 13.4461 27.3281 13.4461C27.6933 13.4461 28.0195 13.7297 28.1452 14.7206C27.8583 14.1202 27.6192 13.8877 27.4233 13.8877" />
</svg>
