<svg viewBox="0 0 30 30" xmlns="http://www.w3.org/2000/svg">
<path d="M24.375 1.875C25.3696 1.875 26.3234 2.27009 27.0266 2.97335C27.7299 3.67661 28.125 4.63044 28.125 5.625V24.375C28.125 25.3696 27.7299 26.3234 27.0266 27.0266C26.3234 27.7299 25.3696 28.125 24.375 28.125H5.625C4.63044 28.125 3.67661 27.7299 2.97335 27.0266C2.27009 26.3234 1.875 25.3696 1.875 24.375V5.625C1.875 4.63044 2.27009 3.67661 2.97335 2.97335C3.67661 2.27009 4.63044 1.875 5.625 1.875H24.375ZM5.625 0C4.13316 0 2.70242 0.592632 1.64752 1.64752C0.592632 2.70242 0 4.13316 0 5.625L0 24.375C0 25.8668 0.592632 27.2976 1.64752 28.3525C2.70242 29.4074 4.13316 30 5.625 30H24.375C25.8668 30 27.2976 29.4074 28.3525 28.3525C29.4074 27.2976 30 25.8668 30 24.375V5.625C30 4.13316 29.4074 2.70242 28.3525 1.64752C27.2976 0.592632 25.8668 0 24.375 0L5.625 0Z" />
<path d="M10.3125 7.5C10.3125 8.24592 10.0162 8.96129 9.48874 9.48874C8.96129 10.0162 8.24592 10.3125 7.5 10.3125C6.75408 10.3125 6.03871 10.0162 5.51126 9.48874C4.98382 8.96129 4.6875 8.24592 4.6875 7.5C4.6875 6.75408 4.98382 6.03871 5.51126 5.51126C6.03871 4.98382 6.75408 4.6875 7.5 4.6875C8.24592 4.6875 8.96129 4.98382 9.48874 5.51126C10.0162 6.03871 10.3125 6.75408 10.3125 7.5V7.5ZM25.3125 7.5C25.3125 8.24592 25.0162 8.96129 24.4887 9.48874C23.9613 10.0162 23.2459 10.3125 22.5 10.3125C21.7541 10.3125 21.0387 10.0162 20.5113 9.48874C19.9838 8.96129 19.6875 8.24592 19.6875 7.5C19.6875 6.75408 19.9838 6.03871 20.5113 5.51126C21.0387 4.98382 21.7541 4.6875 22.5 4.6875C23.2459 4.6875 23.9613 4.98382 24.4887 5.51126C25.0162 6.03871 25.3125 6.75408 25.3125 7.5V7.5ZM25.3125 22.5C25.3125 23.2459 25.0162 23.9613 24.4887 24.4887C23.9613 25.0162 23.2459 25.3125 22.5 25.3125C21.7541 25.3125 21.0387 25.0162 20.5113 24.4887C19.9838 23.9613 19.6875 23.2459 19.6875 22.5C19.6875 21.7541 19.9838 21.0387 20.5113 20.5113C21.0387 19.9838 21.7541 19.6875 22.5 19.6875C23.2459 19.6875 23.9613 19.9838 24.4887 20.5113C25.0162 21.0387 25.3125 21.7541 25.3125 22.5ZM10.3125 22.5C10.3125 23.2459 10.0162 23.9613 9.48874 24.4887C8.96129 25.0162 8.24592 25.3125 7.5 25.3125C6.75408 25.3125 6.03871 25.0162 5.51126 24.4887C4.98382 23.9613 4.6875 23.2459 4.6875 22.5C4.6875 21.7541 4.98382 21.0387 5.51126 20.5113C6.03871 19.9838 6.75408 19.6875 7.5 19.6875C8.24592 19.6875 8.96129 19.9838 9.48874 20.5113C10.0162 21.0387 10.3125 21.7541 10.3125 22.5ZM17.8125 15C17.8125 15.7459 17.5162 16.4613 16.9887 16.9887C16.4613 17.5162 15.7459 17.8125 15 17.8125C14.2541 17.8125 13.5387 17.5162 13.0113 16.9887C12.4838 16.4613 12.1875 15.7459 12.1875 15C12.1875 14.2541 12.4838 13.5387 13.0113 13.0113C13.5387 12.4838 14.2541 12.1875 15 12.1875C15.7459 12.1875 16.4613 12.4838 16.9887 13.0113C17.5162 13.5387 17.8125 14.2541 17.8125 15V15Z" />
</svg>
