<?xml version="1.0" encoding="UTF-8"?><svg xmlns="http://www.w3.org/2000/svg" viewBox="0 0 3679 3759"><defs><style>.d{fill:#050403;}.e{fill:#c2bebe;}.f{fill:#acabab;}.g{fill:#a9a9a9;}.h{fill:#a9abab;}.i{fill:#aeaeae;}.j{fill:#d2d0d0;}.k{fill:#d1d5d5;}.l{fill:#d4d4d4;}.m{fill:#d7d7d7;}.n{fill:#d3d5d5;}.o{fill:#a8adad;}.p{fill:#897574;}.q{fill:#5b5757;}.r{fill:#565757;}.s{fill:#585050;}.t{fill:#585757;}.u{fill:#585a5a;}</style></defs><g id="a"/><g id="b"><g id="c"><path class="d" d="M0,2355.37v-33.99c2.18-4.56,.51-9.39,1.03-14.07,.01-2.7-.04-5.39,.05-8.08,1.69-6.93,.64-13.99,.94-20.98,4.81-69.5,14.97-137.83,45.49-201.48,18.56-38.71,42.55-73.87,71.76-105.34,48.31-52.06,105.07-93.07,167.03-127.27,14.06-7.76,15.26-8.24,13.57-24.65-3.72-36.3,5.07-68.26,37.53-89.91,9.54-6.36,20.16-10.25,30.9-13.87,8.75-2.95,8.85-3.24,2.88-10.12-12.45-14.39-23.72-29.62-33.26-46.14-21.78-37.71-24.7-78-17.44-119.99,5.62-32.55,20.13-61.16,37.43-88.71,31.79-50.62,67.3-98.29,107.91-142.32,59.09-64.07,127.09-116.33,203.2-158.4,14.3-7.9,28.9-15.16,43.53-22.42,34.03-16.88,70.81-20.47,107.8-22.43,29.25-1.55,58.58,.93,87.89-1.42,11.35-.91,22.31,3.46,32.17,9.52,6.24,3.83,12.19,8.14,18.25,12.26,7.95,5.4,7.19,10.12-1.85,14.16-3.04,1.36-6.28,2.23-9.43,3.31-14.8,5.11-29.85,9.5-44.34,15.49-4.32,1.79-8.62,3.61-12.49,6.26-14.87,10.18-15.19,21.43-.4,31.46,17.37,11.77,36.57,15.89,57.17,11.17,34.81-7.98,58.89-34.43,65.56-70.19,4.41-23.64,4.8-47.68,8.38-71.37,3.02-20.01,9.44-38.72,20.37-55.92,17.8-28.01,43.51-43.39,75.89-48.19,17.56-2.6,35.15-2.28,52.61,1.15,17.5,3.44,19.04,6.83,9.11,21.33-15.07,21.99-30.55,43.69-45.26,65.92-4.41,6.67-8.81,13.34-12.88,20.24-7.18,12.16-7.68,25.29-5.98,38.75,.36,2.86,.54,6.68,4.06,7.31,2.82,.5,4.46-2.55,6.01-4.67,11.23-15.32,21.89-31.04,32.82-46.57,16.92-24.05,35.93-46.3,56.58-67.17,42.42-42.86,84.89-85.61,132.64-122.77,31.58-24.58,66.35-40.86,106.51-43.7,27.1-1.92,52.94,4.38,77.67,15.3,19.65,8.68,37.46,20.24,53.93,34.01,18.67,15.62,39.81,19.55,62.68,11.45,22.31-7.9,43.91-17.67,64.9-28.55,17.79-9.22,19.44-17.35,8.82-34.61-5.06-8.23-11.08-15.87-15.77-24.31-3.87-6.97-1.16-12.72,6.33-12.63,24.87,.3,48.43,5.77,68.06,21.95,19.87,16.38,22.02,39.51,20.89,62.88-1.69,35.17-22.6,59.47-48.04,80.8-2.3,1.93-4.83,3.55-7.11,5.51-.52,.45-.93,.96-1.15,1.6,17.52,13.31,48.77,10.16,65.65-6.64,8.89-8.85,14.96-19.48,19.81-30.95,8.95-21.17,17.34-42.63,27.97-63.01,13.06-25.04,28.87-47.97,53.64-63.23,5.98-3.69,9.59-9.38,10.34-16.36,1.03-9.59,2.61-19.09,2.51-28.83-.31-28.63,2.9-57.17,2.08-85.85-.34-12.02-1.1-23.94-2.57-35.83-2.76-22.21-17.28-33.43-37.22-39.59-19.04-5.88-38.15-4.49-57.37-1.1-45.29,7.99-90.11,18.36-135.25,27.14-54.32,10.56-108.99,17.73-164.17,22.4-65.84,5.57-131.73,7-197.58,5.03-70.37-2.1-139.91-12.23-207.92-31.36-25.04-7.04-49.82-14.49-73.4-25.86-52.78-25.44-93.63-64.14-126.73-111.73-6.84-9.84-13.96-19.59-18.61-30.73-13.97-33.52-13.79-65.93,7.28-96.98,17.98-26.49,36.49-52.57,58.22-76.15,21.86-23.73,48.66-41.4,74.87-59.71,46.25-32.31,94.82-60.68,145.76-85,15.34-7.32,30.01-15.94,43.42-26.53,27.38-21.6,38.45-49.21,31.59-83.84-1.3-6.55-5.73-13.13-1.61-20.2h4c20.04,6.88,34,21.87,47.3,37.05,22.5,25.68,38.77,55.14,46.2,88.65,10.99,49.52-1.07,82.97-46.7,114.01-18.14,12.34-37.97,22.04-57.92,31.4-29.55,13.86-59.24,27.58-87.29,44.34-19.09,11.4-33.37,27.21-39.82,49.34-5.83,20,.04,36.21,15.03,49.43,26.07,23,55.99,26.63,87.78,14.88,22.66-8.37,41.99-23.06,62.02-36.22,7.41-4.87,6.23-10.96-3.04-15.88-16.47-8.75-33.05-17.34-50.18-24.76-6.43-2.79-12.8-5.69-18.82-9.27-2.86-1.7-5.99-3.76-5.05-7.74,.81-3.4,4.23-4.05,7.11-4.7,14.66-3.32,29.64-4.71,44.57-5.25,55.52-2,107.64,11.55,157.18,35.87,25.78,12.66,31.93,35.6,16.13,59.84-14.37,22.05-29.19,43.81-43.74,65.75-5.77,8.7-5.7,8.83,4.93,10.54,38.85,6.24,77.85,10.35,117.29,9.89,38.29-.45,76.61,.85,114.83-2.22,73.13-5.86,145.68-15.79,217.31-31.82,44.19-9.89,87.8-22.67,133.14-26.82,40.43-3.7,80.76-5.68,121.54-3.87,100.88,4.47,199.57,24.29,298.96,39.32,28.3,4.28,56.76,7.95,85.49,7.28,78.96-1.84,142.27-33.75,187.25-99.37,18.83-27.47,29.35-58.45,31-91.72,1.04-20.91-4.39-41.22-14.14-59.72-23.77-45.11-57.38-80.1-106.32-97.8-32.02-11.57-65.1-15.89-99.24-12.36-14.91,1.54-29.87,2.4-44.53,5.67-41.47,9.25-67.96,40.41-71.9,82.83-2.4,25.87,.97,49.97,17.51,70.72,19.87,24.92,48.36,31.06,76.41,22.81,15.72-4.63,20.92-21.8,11.73-35.55-6.25-9.35-15.59-15.42-23.85-22.61-11.18-9.73-12.64-13.91-7.39-27.81,5.06-13.41,10.67-26.63,19.69-38,17.66-22.26,40.44-29.17,67.57-20.62,54.22,17.08,88.77,67.27,84.01,123.89-1.6,19.08-10.14,36.55-19.14,53.3-23.45,43.63-60.02,70.3-107.82,82.28-24.32,6.1-48.95,10.33-73.93,11.55-64.13,3.12-113.06-24.42-150.03-75.59-22.24-30.77-37.41-64.49-43.02-102.18-9.42-63.38,6.07-119.22,52.65-164.37,31.4-30.43,68.86-51.23,111.17-62.73,35.55-9.66,71.96-14.27,108.68-14.24,73.85,.07,142.8,19.27,206.99,55.83,27.71,15.78,53.12,34.27,74,58.67,28.81,33.66,44.52,73.22,52.24,116.21,13.3,74.05,8.41,146.61-19.36,217.06-13.2,33.49-31.07,64.21-55.86,90.45-35.22,37.27-79.5,57.43-129.31,66.43-37.37,6.75-74.89,5.49-112.46,1.53-48.77-5.14-96.61-15.96-145.04-23.14-35.9-5.33-72.03-8.09-108.29-10.15-54.96-3.12-109.9-.81-164.83-1.6-25.37-.37-37.93,10.51-42.69,35.5-1,5.27-1.41,10.55-1.4,15.9,.02,45.98,0,91.97,.02,137.95,0,14.55,.27,14.62,14.81,11.01,10.67-2.65,21.23-5.74,31.89-8.42,3.49-.88,7.67-2.17,10.12,1.48,2.13,3.17-.56,6.32-1.97,9.26-4.62,9.64-8.8,19.42-10.75,30.01-2.57,13.97,.56,26.37,9.76,37.31,6.91,8.21,9.31,8.79,18.44,2.98,23.06-14.66,45.81-29.79,68.52-44.97,13.57-9.07,19.84-6.87,23.95,9.14,3.98,15.48,6.97,31.21,10.91,46.72,1.72,6.78,3.37,13.58,5.75,20.18,7.79,21.65,17.09,28.15,40.21,28.23,26.34,.09,52.4-4.36,78.65-5.16,60.63-1.83,121.46-5.08,178.52,22.42,19.42,9.35,36.72,21.58,52.97,35.49,9.59,8.22,9.66,8.46,17.34-2.11,16.46-22.63,33.22-45.05,49.52-67.8,2.99-4.18,5.66-10.96,11.49-9.69,5.56,1.22,5.61,8.44,7.14,13.41,3.63,11.81,4.44,24.23,7.75,36.14,11.86,42.76,38.85,74.56,73.31,100.74,21.33,16.21,45.41,27.67,69.5,39.22,45.95,22.04,92.2,43.47,137.13,67.63,28.45,15.3,57.5,29.45,85.13,46.31,50.31,30.72,89.06,72.72,119.89,122.33,25.33,40.76,46.23,84.04,69.94,125.74,14.32,25.2,28.17,50.7,43.43,75.32,27.24,43.96,36.23,91.06,27.11,141.8-.29,1.61-.83,3.23,.14,5.65,8.37-.97,14.83-8.38,23.64-8.16,1.68,.27,2.94,1.1,3.59,2.73,.68,4.71-1.98,8.3-4.17,11.98-14.68,24.62-25.64,50.62-27.51,79.54-1.6,24.84,5.16,48.19,15.45,70.51,15.79,34.27,39.63,63.05,63.38,91.87,50.62,61.46,101.73,122.53,148.86,186.78,32.76,44.66,63.61,90.59,88.75,139.98,30.44,59.81,51.54,122.82,59.63,189.73,1.31,10.85,1.99,21.86,1.55,32.86,0,4.21,0,8.41,0,12.62,.52,4.14-1.14,8.46,1.03,12.46v41.99c-2.09,3.25-.55,6.86-1.03,10.28,0,2.57,0,5.15,0,7.72,0,2.1,0,4.2,0,6.31-1.88,73.11-21.39,141.16-58.61,204.12-27.52,46.54-57.54,91.35-93.06,132.24-13.53,15.58-27.36,30.92-42.27,45.25-31.23,30.02-45.39,67.03-46.31,110.12-2.64,122.67-42.21,232.1-122.08,325.46-72.62,84.89-165.18,138.87-273.12,166.03-55.21,13.89-108.48,32.59-159.46,57.64-29.29,14.39-58.5,29.44-85.03,48.44-36,25.8-75.76,38.95-119.28,44.71-43.13,5.71-86.31,7.58-129.56,5.69-27.9-1.21-55.73-3.88-83.74-3.67-27.31,.21-53.79,4.92-79.29,14.2-51.68,18.81-105.18,29.08-159.52,36.06-36.32,4.67-72.74,8.34-109.21,11.35-24.19,2-48.52,1.72-72.79,2.68-4.58,0-9.15,0-13.73,0-6.04,0-12.07,0-18.11,0-19.39,0-38.78,0-58.16,0-4.79,0-9.59,0-14.38,0-3.43,0-6.86,0-10.28,0-64.73-1.53-128.65-10.4-192.4-21.04-115.1-19.21-228.82-45.05-342.48-71.14-62.06-14.24-124.47-26.66-187.83-33.45-32.75-3.51-65.67-5.01-98.56-6.86-67.13-3.79-134.09-9.1-200.39-21.57-92.65-17.42-185.94-31.57-277.45-54.74-83.65-21.19-164.53-49.91-240.64-90.94-56.79-30.61-109.69-66.96-158.14-109.75-34.63-30.58-65.64-64.17-91.74-102.43-33.62-49.26-53.65-103.99-67.13-161.48-5.79-24.69-9.46-49.75-10.01-75.14-.86-39.46,7.2-76.9,27.34-111.12,8.06-13.71,8.69-27.29,4.54-42.21-6.53-23.42-12.48-47.05-13.88-71.48-2.53-44.35,11.23-84.02,35.03-120.76,3.99-6.15,7.83-12.43,12.24-18.27,5.14-6.81,3.93-11.76-2.61-16.84-21.69-16.84-40.81-36.27-57.35-58.21-39.6-52.5-61.14-111.79-66.51-177.14-.27-5.93,.61-11.9-.64-17.8-.57-2.63-.26-5.31-.34-7.96-.52-4.07,1.14-8.33-1.03-12.27Z"/><path class="t" d="M1953.31,3757.2c20.13,.05,40.27,.1,60.4,.15,.45,.44,.57,.84,.34,1.18-.21,.31-.41,.47-.59,.47h-59.98c-.62-.35-.85-.73-.69-1.15,.16-.43,.34-.65,.53-.65Z"/><path class="j" d="M0,2291.39c2.29-1.87,1.74-4.52,1.96-6.98,.23-2.44-.36-5.13,1.9-7.03,.18,7.41,.51,14.83-1.75,22.05-.72,.88-1.42,.87-2.11-.04v-8Z"/><path class="k" d="M3.9,2393.38c-3.82-3.19-.06-8.83-3.9-12.01v-6c.68-1.11,1.43-1.15,2.23-.13,1.96,5.92,1.93,12.01,1.67,18.14Z"/><path class="g" d="M2013.45,3759c.13-.54,.22-1.09,.25-1.65,5.94-.03,11.88-.05,17.81-.08,.61,.41,.8,.8,.58,1.18-.22,.37-.43,.55-.65,.55h-18Z"/><path class="q" d="M2.07,2307.46c-.32,4.7,2.01,9.79-2.07,13.92v-14c.72-.92,1.41-.9,2.07,.07Z"/><path class="e" d="M3677.25,2465.26c.58,.03,1.17,.05,1.75,.09v14c-.73,.92-1.32,.88-1.73-.27l-.02-13.81Z"/><path class="i" d="M1953.31,3757.2c.21,.59,.27,1.19,.16,1.8h-14c-.66-.41-.88-.83-.67-1.26,.21-.43,.43-.64,.64-.64,4.62,.03,9.24,.07,13.86,.1Z"/><path class="l" d="M2031.45,3759c.02-.58,.04-1.15,.07-1.73,4.63-.97,9.28-.75,13.94-.21,.02,.65,.02,1.29-.01,1.94h-14Z"/><path class="u" d="M0,2355.37c4.17,3.35,1.72,7.86,2.11,11.88-.65,1.02-1.35,1.01-2.11,.11v-12Z"/><path class="s" d="M3677.27,2479.07c.59-.03,1.17,.06,1.73,.27v12c-3.53-3.67-1.68-8.1-1.73-12.27Z"/><path class="r" d="M3677.28,2543.54c.17-3.47-1.78-7.3,1.72-10.22v10c-.48,.8-1.05,.91-1.72,.22Z"/><path class="m" d="M1939.45,3757.1c.06,.63,.07,1.27,.03,1.9h-10c0-.69,.02-1.38,.03-2.07,3.31,.06,6.63,.11,9.94,.17Z"/><path class="f" d="M2.07,2307.46c-.69-.02-1.38-.05-2.07-.07v-8c.7,.01,1.41,.03,2.11,.04,.61,2.68,.64,5.36-.04,8.03Z"/><path class="h" d="M0,2367.37c.7-.04,1.41-.08,2.11-.11,.63,2.65,.57,5.32,.13,7.99-.74,.04-1.49,.08-2.23,.13v-8Z"/><path class="o" d="M3677.28,2543.54c.58,.02,1.16-.06,1.72-.22v8c-.53,.88-1.1,.9-1.7,.07,0-2.62-.01-5.24-.02-7.85Z"/><path class="n" d="M3677.3,2551.4c.57-.02,1.13-.04,1.7-.07v6l-.83,.07h-.83c-.01-2-.02-4-.03-6Z"/><path class="p" d="M3328.9,1661.43c1.22-1.6,2.87-3.11,4.52-1.21,.93,1.06,.04,2.94-1.81,3.49-.42-1.33-1.52-1.87-2.71-2.28Z"/></g></g></svg>