<svg viewBox="0 0 30 30" fill="none" xmlns="http://www.w3.org/2000/svg">
<path stroke-width="1.5" d="M22.5 20C22.5 24.1375 19.1375 27.5 15 27.5C10.8625 27.5 7.5 24.1375 7.5 20C7.5 16.25 10 16.25 10 12.5C10 10.7 10.9375 9.025 12.5 8.125C13 7.8375 13.525 7.65 14.0625 7.55V6.25C14.0625 5.7875 13.9625 5.525 13.7875 5.35C13.625 5.175 13.2875 5 12.5 5V3.125C13.6 3.125 14.5 3.4125 15.1125 4.025C15.725 4.6375 15.9375 5.475 15.9375 6.25V7.55C16.475 7.65 17.0125 7.8375 17.5 8.125C19.0625 9.025 20 10.7 20 12.5C20 16.25 22.5 16.25 22.5 20Z" />
</svg>
