<svg viewBox="0 0 27 27" xmlns="http://www.w3.org/2000/svg">
<path d="M13.5 12.375C14.9918 12.375 16.4226 12.9676 17.4775 14.0225C18.5324 15.0774 19.125 16.5082 19.125 18V24.75H16.875V18C16.875 17.1391 16.5461 16.3108 15.9556 15.6845C15.365 15.0581 14.5574 14.6811 13.698 14.6306L13.5 14.625C12.6391 14.625 11.8108 14.9539 11.1845 15.5444C10.5581 16.135 10.1811 16.9426 10.1306 17.802L10.125 18V24.75H7.875V18C7.875 16.5082 8.46763 15.0774 9.52252 14.0225C10.5774 12.9676 12.0082 12.375 13.5 12.375ZM6.1875 15.75C6.50138 15.75 6.80625 15.7871 7.09875 15.8557C6.9064 16.4284 6.79249 17.0244 6.76012 17.6276L6.75 18V18.0968C6.62068 18.0505 6.48618 18.0203 6.3495 18.0068L6.1875 18C5.76801 18 5.36356 18.1563 5.05303 18.4383C4.7425 18.7204 4.54815 19.1079 4.50787 19.5255L4.5 19.6875V24.75H2.25V19.6875C2.25 18.6432 2.66484 17.6417 3.40327 16.9033C4.14169 16.1648 5.14321 15.75 6.1875 15.75V15.75ZM20.8125 15.75C21.8568 15.75 22.8583 16.1648 23.5967 16.9033C24.3352 17.6417 24.75 18.6432 24.75 19.6875V24.75H22.5V19.6875C22.5 19.268 22.3437 18.8636 22.0617 18.553C21.7796 18.2425 21.3921 18.0481 20.9745 18.0079L20.8125 18C20.6156 18 20.4266 18.0337 20.25 18.0956V18C20.25 17.2507 20.1285 16.5307 19.9024 15.858C20.2004 15.7859 20.5059 15.7496 20.8125 15.75ZM6.1875 9C6.93342 9 7.64879 9.29632 8.17624 9.82376C8.70368 10.3512 9 11.0666 9 11.8125C9 12.5584 8.70368 13.2738 8.17624 13.8012C7.64879 14.3287 6.93342 14.625 6.1875 14.625C5.44158 14.625 4.72621 14.3287 4.19876 13.8012C3.67132 13.2738 3.375 12.5584 3.375 11.8125C3.375 11.0666 3.67132 10.3512 4.19876 9.82376C4.72621 9.29632 5.44158 9 6.1875 9V9ZM20.8125 9C21.5584 9 22.2738 9.29632 22.8012 9.82376C23.3287 10.3512 23.625 11.0666 23.625 11.8125C23.625 12.5584 23.3287 13.2738 22.8012 13.8012C22.2738 14.3287 21.5584 14.625 20.8125 14.625C20.0666 14.625 19.3512 14.3287 18.8238 13.8012C18.2963 13.2738 18 12.5584 18 11.8125C18 11.0666 18.2963 10.3512 18.8238 9.82376C19.3512 9.29632 20.0666 9 20.8125 9V9ZM6.1875 11.25C6.03832 11.25 5.89524 11.3093 5.78975 11.4148C5.68426 11.5202 5.625 11.6633 5.625 11.8125C5.625 11.9617 5.68426 12.1048 5.78975 12.2102C5.89524 12.3157 6.03832 12.375 6.1875 12.375C6.33668 12.375 6.47976 12.3157 6.58525 12.2102C6.69074 12.1048 6.75 11.9617 6.75 11.8125C6.75 11.6633 6.69074 11.5202 6.58525 11.4148C6.47976 11.3093 6.33668 11.25 6.1875 11.25ZM20.8125 11.25C20.6633 11.25 20.5202 11.3093 20.4148 11.4148C20.3093 11.5202 20.25 11.6633 20.25 11.8125C20.25 11.9617 20.3093 12.1048 20.4148 12.2102C20.5202 12.3157 20.6633 12.375 20.8125 12.375C20.9617 12.375 21.1048 12.3157 21.2102 12.2102C21.3157 12.1048 21.375 11.9617 21.375 11.8125C21.375 11.6633 21.3157 11.5202 21.2102 11.4148C21.1048 11.3093 20.9617 11.25 20.8125 11.25ZM13.5 2.25C14.6935 2.25 15.8381 2.72411 16.682 3.56802C17.5259 4.41193 18 5.55653 18 6.75C18 7.94347 17.5259 9.08807 16.682 9.93198C15.8381 10.7759 14.6935 11.25 13.5 11.25C12.3065 11.25 11.1619 10.7759 10.318 9.93198C9.47411 9.08807 9 7.94347 9 6.75C9 5.55653 9.47411 4.41193 10.318 3.56802C11.1619 2.72411 12.3065 2.25 13.5 2.25V2.25ZM13.5 4.5C12.9033 4.5 12.331 4.73705 11.909 5.15901C11.4871 5.58097 11.25 6.15326 11.25 6.75C11.25 7.34674 11.4871 7.91903 11.909 8.34099C12.331 8.76295 12.9033 9 13.5 9C14.0967 9 14.669 8.76295 15.091 8.34099C15.5129 7.91903 15.75 7.34674 15.75 6.75C15.75 6.15326 15.5129 5.58097 15.091 5.15901C14.669 4.73705 14.0967 4.5 13.5 4.5V4.5Z" />
</svg>
